<?xml version="1.0" encoding="UTF-8" standalone="no"?><!DOCTYPE svg PUBLIC "-//W3C//DTD SVG 1.1//EN" "http://www.w3.org/Graphics/SVG/1.1/DTD/svg11.dtd"><svg width="100%" height="100%" viewBox="0 0 1000 600" version="1.1" xmlns="http://www.w3.org/2000/svg" xmlns:xlink="http://www.w3.org/1999/xlink" xml:space="preserve" xmlns:serif="http://www.serif.com/" style="fill-rule:evenodd;clip-rule:evenodd;stroke-linecap:round;stroke-linejoin:round;stroke-miterlimit:1.5;"><rect x="310" y="0" width="700" height="641.049" style="fill:#ebebeb;"/><rect x="354.443" y="480.787" width="611.113" height="99.686" style="fill:#797979;"/><rect x="354.443" y="176.509" width="611.113" height="177.351" style="fill:#a9a9a9;"/><rect x="354.443" y="353.86" width="611.113" height="126.927" style="fill:#a9a9a9;"/><rect x="354.443" y="60.576" width="611.113" height="131.739" style="fill:#797979;"/><g transform="matrix(1.13071,0,0,1.03549,272.19,-14.2928)"><text x="71.856px" y="122.954px" style="font-family:'Impact', sans-serif;font-stretch:condensed;font-size:28px;fill:#fff;">&lt;!DOCT<tspan x="154.229px 167.477px " y="122.954px 122.954px ">YP</tspan>E html&gt;</text><text x="71.856px" y="178.954px" style="font-family:'Impact', sans-serif;font-stretch:condensed;font-size:28px;fill:#fff;">&lt;html&gt;</text><text x="107.856px" y="234.954px" style="font-family:'Impact', sans-serif;font-stretch:condensed;font-size:28px;fill:#fff;"><tspan x="107.856px " y="234.954px ">&lt;</tspan>head&gt;</text><text x="143.856px" y="262.954px" style="font-family:'Impact', sans-serif;font-stretch:condensed;font-size:28px;fill:#fff;"><tspan x="143.856px " y="262.954px ">&lt;</tspan>title&gt;My ﬁrst webpage&lt;/title&gt;</text><text x="143.856px" y="290.954px" style="font-family:'Impact', sans-serif;font-stretch:condensed;font-size:28px;fill:#fff;"><tspan x="143.856px " y="290.954px ">&lt;</tspan>meta charset=&quot;UTF-8&quot;&gt;</text><text x="143.856px" y="318.954px" style="font-family:'Impact', sans-serif;font-stretch:condensed;font-size:28px;fill:#fff;"><tspan x="143.856px " y="318.954px ">&lt;</tspan>link rel =&quot;st<tspan x="291.581px 304.132px " y="318.954px 318.954px ">yl</tspan>esheet&quot; href=&quot;st<tspan x="501.061px 513.612px " y="318.954px 318.954px ">yl</tspan>e.css/&gt;</text><text x="107.856px" y="346.954px" style="font-family:'Impact', sans-serif;font-stretch:condensed;font-size:28px;fill:#fff;"><tspan x="107.856px " y="346.954px ">&lt;</tspan>/head&gt;</text><text x="107.856px" y="402.954px" style="font-family:'Impact', sans-serif;font-stretch:condensed;font-size:28px;fill:#fff;"><tspan x="107.856px " y="402.954px ">&lt;</tspan>body&gt;</text><text x="143.856px" y="430.954px" style="font-family:'Impact', sans-serif;font-stretch:condensed;font-size:28px;fill:#fff;"><tspan x="143.856px " y="430.954px ">&lt;</tspan>h1&gt;Hello World!&lt;/h1&gt;</text><text x="107.856px" y="458.954px" style="font-family:'Impact', sans-serif;font-stretch:condensed;font-size:28px;fill:#fff;"><tspan x="107.856px " y="458.954px ">&lt;</tspan>/body&gt;</text><text x="71.856px" y="514.954px" style="font-family:'Impact', sans-serif;font-stretch:condensed;font-size:28px;fill:#fff;">&lt;/html&gt;</text></g><g><path d="M300,100l-60,0" style="fill:none;stroke:#000;stroke-width:5px;"/><path d="M300,160l-60,0" style="fill:none;stroke:#000;stroke-width:5px;"/><path d="M300,200l-60,0l0,140l60,0" style="fill:none;stroke:#000;stroke-width:5px;"/><path d="M300,400l-60,0l0,60l60,0" style="fill:none;stroke:#000;stroke-width:5px;"/><path d="M300,519.374l-60,0" style="fill:none;stroke:#000;stroke-width:5px;"/><path d="M240,270l-60,0" style="fill:none;stroke:#000;stroke-width:5px;"/><path d="M240,430l-60,0" style="fill:none;stroke:#000;stroke-width:5px;"/><path d="M240,160l-60,0" style="fill:none;stroke:#000;stroke-width:5px;"/><path d="M240,100l-60,0" style="fill:none;stroke:#000;stroke-width:5px;"/><path d="M240,520l-60,0" style="fill:none;stroke:#000;stroke-width:5px;"/></g><g><text x="20px" y="500px" style="font-family:'Impact', sans-serif;font-stretch:condensed;font-size:25.3px;">Closes the</text><text x="20px" y="525.3px" style="font-family:'Impact', sans-serif;font-stretch:condensed;font-size:25.3px;">HTML tag</text></g><g transform="matrix(1,0,0,1,-1.03768,-348.128)"><text x="20px" y="500px" style="font-family:'Impact', sans-serif;font-stretch:condensed;font-size:25.3px;">Opens the</text><text x="20px" y="525.3px" style="font-family:'Impact', sans-serif;font-stretch:condensed;font-size:25.3px;">HTML tag</text></g><g transform="matrix(1,0,0,1,-2.64361,-408.128)"><text x="20px" y="500px" style="font-family:'Impact', sans-serif;font-stretch:condensed;font-size:25.3px;">Deﬁnes what</text><text x="20px" y="525.3px" style="font-family:'Impact', sans-serif;font-stretch:condensed;font-size:25.3px;">version of HTML</text></g><g transform="matrix(1,0,0,1,0,-73.8542)"><text x="20px" y="500px" style="font-family:'Impact', sans-serif;font-stretch:condensed;font-size:25.3px;">Visible section</text><text x="20px" y="525.3px" style="font-family:'Impact', sans-serif;font-stretch:condensed;font-size:25.3px;">of the web page</text></g><g transform="matrix(1,0,0,1,-1.72946,-280)"><text x="20px" y="500px" style="font-family:'Impact', sans-serif;font-stretch:condensed;font-size:25.3px;">Information about</text><text x="20px" y="525.3px" style="font-family:'Impact', sans-serif;font-stretch:condensed;font-size:25.3px;">the page. Contains</text><text x="20px" y="550.599px" style="font-family:'Impact', sans-serif;font-stretch:condensed;font-size:25.3px;">encoding info,</text><text x="20px" y="575.899px" style="font-family:'Impact', sans-serif;font-stretch:condensed;font-size:25.3px;">title and links</text><text x="20px" y="601.198px" style="font-family:'Impact', sans-serif;font-stretch:condensed;font-size:25.3px;">to external resouces</text><text x="20px" y="626.498px" style="font-family:'Impact', sans-serif;font-stretch:condensed;font-size:25.3px;">like css or js</text></g></svg>