<?xml version="1.0" encoding="UTF-8" standalone="no"?><!DOCTYPE svg PUBLIC "-//W3C//DTD SVG 1.1//EN" "http://www.w3.org/Graphics/SVG/1.1/DTD/svg11.dtd"><svg width="100%" height="100%" viewBox="0 0 1000 300" version="1.1" xmlns="http://www.w3.org/2000/svg" xmlns:xlink="http://www.w3.org/1999/xlink" xml:space="preserve" xmlns:serif="http://www.serif.com/" style="fill-rule:evenodd;clip-rule:evenodd;stroke-linejoin:round;stroke-miterlimit:1.41421;"><clipPath id="_clip1"><rect id="iconmonstr-generation-15" x="270.471" y="100.523" width="98.955" height="98.955"/></clipPath><g clip-path="url(#_clip1)"><path d="M369.426,155.414c0,-8.465 -3.109,-12.477 -5.843,-14.386c1.612,-6.284 4.247,-21.218 -3.97,-30.548c-3.868,-4.391 -10.16,-6.35 -16.988,-5.253c-5.364,-2.297 -13.466,-4.704 -22.677,-4.704c-9.211,0 -17.313,2.407 -22.677,4.704c-6.828,-1.097 -13.12,0.858 -16.987,5.253c-8.218,9.33 -5.579,24.264 -3.971,30.548c-2.733,1.909 -5.842,5.917 -5.842,14.386c0,4.106 1.344,8.786 4.065,12.79c-2,5.859 2.157,12.571 9.413,11.767c-1.311,6.688 5.628,12.072 12.708,8.774c-0.829,4.795 5.859,10.638 14.196,6.469c2.766,2.359 4.898,4.263 9.087,4.263c4.762,0 7.611,-2.651 9.388,-4.267c8.337,4.173 14.736,-1.674 13.912,-6.469c7.083,3.298 14.018,-2.086 12.707,-8.774c7.257,0.804 11.413,-5.909 9.413,-11.768c2.717,-3.999 4.066,-8.683 4.066,-12.785Zm-49.478,27.089c-7.1,0 -9.895,-7.764 -9.895,-7.764l19.791,0c0,0 -2.524,7.764 -9.896,7.764Zm14.753,-12.337c-4.338,-2.123 -10.122,-4.642 -14.753,-1.327c-4.634,-3.315 -10.415,-0.796 -14.752,1.327c-17.528,8.576 -33.084,-16.587 -24.088,-22.446c0.842,-0.544 2.013,-0.557 2.771,-0.219c2.726,1.204 5.797,-0.787 5.797,-3.768c0,-9.129 2.853,-18.282 8.881,-24.689l0.062,-0.042c10.737,-10.703 31.917,-10.703 42.654,0l0.066,0.046c6.028,6.407 8.881,15.56 8.881,24.685c0,2.993 3.084,4.968 5.797,3.768c0.582,-0.259 1.798,-0.412 2.767,0.219c8.865,5.739 -6.242,31.175 -24.083,22.446Zm0.709,-30.474c-4.634,0 -8.634,2.594 -10.749,6.375c-1.538,-0.479 -3.068,-0.718 -4.713,-0.718c-1.645,0 -3.175,0.239 -4.712,0.718c-2.116,-3.781 -6.115,-6.375 -10.749,-6.375c-6.82,0 -12.37,5.55 -12.37,12.37c0,6.819 5.55,12.369 12.37,12.369c5.075,0 9.421,-3.084 11.326,-7.467c1.014,-2.334 1.624,-5.364 4.135,-5.364c2.511,0 3.126,3.03 4.136,5.364c1.905,4.383 6.25,7.467 11.326,7.467c6.82,0 12.369,-5.55 12.369,-12.369c0,-6.82 -5.549,-12.37 -12.369,-12.37Zm-30.923,18.554c-3.414,0 -6.185,-2.77 -6.185,-6.184c0,-3.414 2.771,-6.185 6.185,-6.185c3.413,0 6.184,2.771 6.184,6.185c0,3.414 -2.771,6.184 -6.184,6.184Zm30.923,0c-3.414,0 -6.185,-2.77 -6.185,-6.184c0,-3.414 2.771,-6.185 6.185,-6.185c3.414,0 6.185,2.771 6.185,6.185c0,3.414 -2.771,6.184 -6.185,6.184Z" style="fill-rule:nonzero;"/></g><clipPath id="_clip2"><rect id="iconmonstr-generation-10" x="800" y="103.846" width="100" height="92.308"/></clipPath><g clip-path="url(#_clip2)"><path d="M867.308,151.923c0,3.185 -2.154,5.769 -4.808,5.769c-2.654,0 -4.808,-2.584 -4.808,-5.769c0,-3.185 2.154,-5.769 4.808,-5.769c2.654,0 4.808,2.584 4.808,5.769Zm-29.808,-5.769c-2.654,0 -4.808,2.584 -4.808,5.769c0,3.185 2.154,5.769 4.808,5.769c2.654,0 4.808,-2.584 4.808,-5.769c0,-3.185 -2.154,-5.769 -4.808,-5.769Zm12.5,32.131c8.596,0 11.538,-9.054 11.538,-9.054l-23.076,0c0,0 3.257,9.054 11.538,9.054Zm50,-25.962c0,11.019 -3.042,22.223 -7.435,31.704c-2.084,4.496 -4.473,8.608 -6.988,12.127l-14.6,-7.373c-5.985,4.565 -12.962,7.373 -20.977,7.373c-7.665,0 -14.712,-2.881 -20.8,-7.466l-14.777,7.466c-2.515,-3.519 -4.904,-7.631 -6.988,-12.127c-4.393,-9.481 -7.435,-20.685 -7.435,-31.704c0,-29.192 20.312,-48.477 50,-48.477c29.688,0 50,19.285 50,48.477Zm-21.804,16.481c0.473,-0.777 1.204,-1.362 2.062,-1.654c8.1,-2.742 9.884,-13.573 6.93,-18.254c-25.292,-1.5 -41.884,-12.934 -48.726,-24.315c-8.681,19.473 -19.531,25.492 -26.397,26.134c-1.853,6.593 1.239,14.254 7.677,16.435c0.862,0.292 1.589,0.877 2.062,1.654c6.569,10.884 15.442,19.658 28.196,19.658c12.762,0 21.631,-8.785 28.196,-19.658Z" style="fill-rule:nonzero;"/></g><clipPath id="_clip3"><rect id="iconmonstr-generation-9" x="626.983" y="100.381" width="99.239" height="99.239"/></clipPath><g clip-path="url(#_clip3)"><path d="M695.209,152.067c0,3.424 -2.315,6.203 -5.168,6.203c-2.853,0 -5.169,-2.779 -5.169,-6.203c0,-3.423 2.316,-6.202 5.169,-6.202c2.853,0 5.168,2.779 5.168,6.202Zm-32.046,-6.202c-2.853,0 -5.168,2.779 -5.168,6.202c0,3.424 2.315,6.203 5.168,6.203c2.854,0 5.169,-2.779 5.169,-6.203c0,-3.423 -2.315,-6.202 -5.169,-6.202Zm13.439,22.151c-9.82,-6.012 -6.984,8.663 -20.675,2.642c2.068,8.32 14.497,9.73 20.675,4.718c6.178,5.012 18.607,3.602 20.675,-4.718c-13.691,6.025 -10.854,-8.65 -20.675,-2.642Zm49.62,-12.587c0,7.298 -4.073,16.503 -12.98,20.286c-8.477,13.538 -20.571,23.904 -36.64,23.904c-15.502,0 -28.357,-10.676 -36.644,-23.904c-8.902,-3.787 -12.975,-12.992 -12.975,-20.286c0,-8.249 3.353,-15.605 11.094,-16.37l0.124,-0.116l0.012,-0.083c-1.034,-8.042 -1.397,-20.344 2.973,-25.004c2.349,-2.501 5.032,-3.469 8.464,-2.336c5.351,-7.298 14.283,-11.139 26.348,-11.139c19.211,0 27.093,9.994 33.812,18.441c3.692,4.644 8.142,9.296 16.412,9.039c-3.346,3.135 -7.357,5.599 -11.711,7.423c0.211,1.244 0.385,2.497 0.505,3.75c7.65,0.682 11.206,7.877 11.206,16.395Zm-10.669,-7.716c-0.971,-0.632 -2.191,-0.479 -2.774,-0.219c-2.729,1.212 -5.814,-0.794 -5.814,-3.779c0,-1.981 -0.145,-3.957 -0.413,-5.913c-16.95,3.837 -36.152,-0.955 -42.872,-14.336c-9.82,1.551 -15.919,9.742 -17.486,20.762l-0.017,0c-0.36,2.824 -3.246,4.379 -5.748,3.266c-0.583,-0.256 -1.802,-0.413 -2.778,0.219c-4.135,2.692 -3.693,17.301 6.425,20.725c0.927,0.314 1.708,0.943 2.213,1.778c7.062,11.698 16.602,21.134 30.313,21.134c13.72,0 23.255,-9.445 30.313,-21.134c0.509,-0.835 1.295,-1.464 2.217,-1.778c10.122,-3.428 10.556,-18.045 6.421,-20.725Z" style="fill-rule:nonzero;"/></g><clipPath id="_clip4"><rect id="iconmonstr-generation-8" x="100" y="105.373" width="96.692" height="89.254"/></clipPath><g clip-path="url(#_clip4)"><path d="M165.081,151.859c0,3.08 -2.082,5.579 -4.648,5.579c-2.566,0 -4.649,-2.499 -4.649,-5.579c0,-3.079 2.083,-5.578 4.649,-5.578c2.566,0 4.648,2.499 4.648,5.578Zm-28.821,-5.578c-2.566,0 -4.649,2.499 -4.649,5.578c0,3.08 2.083,5.579 4.649,5.579c2.566,0 4.648,-2.499 4.648,-5.579c0,-3.079 -2.082,-5.578 -4.648,-5.578Zm12.086,31.068c8.312,0 11.157,-8.754 11.157,-8.754l-22.314,0c0,0 3.15,8.754 11.157,8.754Zm48.346,13.533c-9.866,6.375 -20.149,4.664 -25.445,-5.534c-6.218,5.597 -13.782,9.249 -22.901,9.249c-9.409,0 -16.798,-3.384 -22.998,-9.092c-5.322,10.048 -15.537,11.714 -25.348,5.377c16.27,-6.508 -10.149,-43.932 15.263,-72.054c8.486,-9.39 20.35,-13.455 33.083,-13.455c12.734,0 24.597,4.065 33.084,13.455c25.411,28.122 -1.008,65.546 15.262,72.054Zm-21.079,-22.726c0.454,-0.751 1.161,-1.317 1.99,-1.599c9.1,-3.08 9.498,-16.219 5.779,-18.64c-0.874,-0.565 -1.974,-0.427 -2.499,-0.197c-2.469,1.097 -5.229,-0.721 -5.229,-3.399c0,-1.751 -0.126,-3.722 -0.357,-5.478l-37.565,0c-3.023,-3.797 -2.867,-10.952 -1.472,-16.995c-3.359,3.652 -6.297,12.082 -6.973,16.995l-7.888,0c-0.231,1.756 -0.357,3.727 -0.357,5.478c0,2.678 -2.76,4.496 -5.229,3.399c-0.524,-0.23 -1.622,-0.372 -2.499,0.197c-3.719,2.421 -3.321,15.56 5.779,18.64c0.833,0.282 1.536,0.848 1.99,1.599c6.355,10.521 14.931,19.007 27.267,19.007c12.332,0 20.911,-8.49 27.263,-19.007Z" style="fill-rule:nonzero;"/></g><clipPath id="_clip5"><rect id="iconmonstr-generation-12" x="443.204" y="100.893" width="110" height="98.214"/></clipPath><g clip-path="url(#_clip5)"><path d="M515.883,153.929c0,3.252 -2.2,5.892 -4.911,5.892c-2.711,0 -4.911,-2.64 -4.911,-5.892c0,-3.253 2.2,-5.893 4.911,-5.893c2.711,0 4.911,2.64 4.911,5.893Zm-25.536,0c0,-3.253 -2.2,-5.893 -4.911,-5.893c-2.71,0 -4.91,2.64 -4.91,5.893c0,3.252 2.2,5.892 4.91,5.892c2.711,0 4.911,-2.64 4.911,-5.892Zm7.857,26.926c8.781,0 11.786,-9.248 11.786,-9.248l-23.572,0c0,0 3.328,9.248 11.786,9.248Zm55,-14.815c0,19.91 -16.166,28.628 -33.892,25.461c-6.509,4.927 -13.655,7.606 -21.108,7.606c-7.452,0 -14.602,-2.679 -21.112,-7.602c-17.722,3.163 -33.888,-5.551 -33.888,-25.465c0,-31.42 22.161,-65.147 55,-65.147c32.839,0 55,33.727 55,65.147Zm-26.199,4.919c0.479,-0.794 1.229,-1.391 2.105,-1.689c6.148,-2.083 8.38,-8.533 8.38,-12.36c0,-1.1 -0.094,-2.074 -0.232,-2.974c-16.425,-0.082 -27.248,-20.373 -26.805,-31.251c-5.637,9.122 -16.676,20.071 -27.472,20.071c3.068,-4.974 3.009,-8.655 2.455,-12.886c-2.486,4.977 -12.249,20.79 -26.058,22.982c-0.283,1.151 -0.46,2.483 -0.46,4.058c0,3.831 2.232,10.281 8.38,12.36c0.88,0.298 1.627,0.895 2.106,1.689c7.9,13.086 18.126,20.291 28.8,20.291c10.67,0 20.9,-7.205 28.801,-20.291Z" style="fill-rule:nonzero;"/></g><g transform="matrix(1,0,0,1,0,-2.19922)"><text x="100px" y="240px" style="font-family:'Impact', sans-serif;font-stretch:condensed;font-size:24px;">BUSINESS</text><text x="100px" y="264px" style="font-family:'Impact', sans-serif;font-stretch:condensed;font-size:24px;">MANAGERS</text></g><g transform="matrix(1,0,0,1,172.089,-2.19922)"><text x="100px" y="240px" style="font-family:'Impact', sans-serif;font-stretch:condensed;font-size:24px;">PRODUCT</text><text x="100px" y="264px" style="font-family:'Impact', sans-serif;font-stretch:condensed;font-size:24px;">MANAGERS</text></g><text x="444.178px" y="249.801px" style="font-family:'Impact', sans-serif;font-stretch:condensed;font-size:24px;">DESIGNERS</text><text x="617.251px" y="249.801px" style="font-family:'Impact', sans-serif;font-stretch:condensed;font-size:24px;">MARKE<tspan x="682.103px 693.165px " y="249.801px 249.801px ">TE</tspan>RS</text><text x="797.449px" y="249.801px" style="font-family:'Impact', sans-serif;font-stretch:condensed;font-size:24px;">PROGRAMMERS</text></svg>