<?xml version="1.0" encoding="UTF-8" standalone="no"?>
<!DOCTYPE svg PUBLIC "-//W3C//DTD SVG 1.1//EN" "http://www.w3.org/Graphics/SVG/1.1/DTD/svg11.dtd">
<svg width="100%" height="100%" viewBox="0 0 1200 800" version="1.1" xmlns="http://www.w3.org/2000/svg" xmlns:xlink="http://www.w3.org/1999/xlink" xml:space="preserve" xmlns:serif="http://www.serif.com/" style="fill-rule:evenodd;clip-rule:evenodd;stroke-linecap:round;stroke-linejoin:round;stroke-miterlimit:1.5;">
    <g transform="matrix(5.52429,0,0,4.32668,455.09,315.369)">
        <path d="M24,8L0,8L0,12L24,12L24,8ZM2,11L2.863,9L4.138,9L3.275,11L2,11ZM4.066,11L4.93,9L6.205,9L5.342,11L4.066,11ZM6.133,11L6.996,9L8.271,9L7.407,11L6.133,11ZM8.199,11L9.062,9L10.336,9L9.473,11L8.199,11ZM11.54,11L10.266,11L11.129,9L12.404,9L11.54,11ZM21,11C20.448,11 20,10.552 20,10C20,9.448 20.448,9 21,9C21.553,9 22,9.448 22,10C22,10.552 21.553,11 21,11ZM24,14L0,14L0,18L24,18L24,14ZM2,17L2.863,15L4.138,15L3.275,17L2,17ZM4.066,17L4.929,15L6.204,15L5.341,17L4.066,17ZM6.133,17L6.996,15L8.271,15L7.407,17L6.133,17ZM8.199,17L9.062,15L10.336,15L9.473,17L8.199,17ZM11.54,17L10.266,17L11.129,15L12.404,15L11.54,17ZM21,17C20.448,17 20,16.552 20,16C20,15.448 20.448,15 21,15C21.553,15 22,15.448 22,16C22,16.552 21.553,17 21,17ZM24,20L0,20L0,24L24,24L24,20ZM2,23L2.863,21L4.138,21L3.275,23L2,23ZM4.066,23L4.929,21L6.204,21L5.341,23L4.066,23ZM6.133,23L6.996,21L8.271,21L7.407,23L6.133,23ZM8.199,23L9.062,21L10.336,21L9.473,23L8.199,23ZM11.54,23L10.266,23L11.129,21L12.404,21L11.54,23ZM21,23C20.448,23 20,22.552 20,22C20,21.448 20.448,21 21,21C21.553,21 22,21.448 22,22C22,22.552 21.553,23 21,23ZM22,6L2,6L6,0L18,0L22,6Z" style="fill-rule:nonzero;"/>
    </g>
    <g transform="matrix(5.52429,0,0,4.32668,771.657,34.3314)">
        <path d="M24,8L0,8L0,12L24,12L24,8ZM2,11L2.863,9L4.138,9L3.275,11L2,11ZM4.066,11L4.93,9L6.205,9L5.342,11L4.066,11ZM6.133,11L6.996,9L8.271,9L7.407,11L6.133,11ZM8.199,11L9.062,9L10.336,9L9.473,11L8.199,11ZM11.54,11L10.266,11L11.129,9L12.404,9L11.54,11ZM21,11C20.448,11 20,10.552 20,10C20,9.448 20.448,9 21,9C21.553,9 22,9.448 22,10C22,10.552 21.553,11 21,11ZM24,14L0,14L0,18L24,18L24,14ZM2,17L2.863,15L4.138,15L3.275,17L2,17ZM4.066,17L4.929,15L6.204,15L5.341,17L4.066,17ZM6.133,17L6.996,15L8.271,15L7.407,17L6.133,17ZM8.199,17L9.062,15L10.336,15L9.473,17L8.199,17ZM11.54,17L10.266,17L11.129,15L12.404,15L11.54,17ZM21,17C20.448,17 20,16.552 20,16C20,15.448 20.448,15 21,15C21.553,15 22,15.448 22,16C22,16.552 21.553,17 21,17ZM24,20L0,20L0,24L24,24L24,20ZM2,23L2.863,21L4.138,21L3.275,23L2,23ZM4.066,23L4.929,21L6.204,21L5.341,23L4.066,23ZM6.133,23L6.996,21L8.271,21L7.407,23L6.133,23ZM8.199,23L9.062,21L10.336,21L9.473,23L8.199,23ZM11.54,23L10.266,23L11.129,21L12.404,21L11.54,23ZM21,23C20.448,23 20,22.552 20,22C20,21.448 20.448,21 21,21C21.553,21 22,21.448 22,22C22,22.552 21.553,23 21,23ZM22,6L2,6L6,0L18,0L22,6Z" style="fill-rule:nonzero;"/>
    </g>
    <g transform="matrix(5.52429,0,0,4.32668,771.657,238.723)">
        <path d="M24,8L0,8L0,12L24,12L24,8ZM2,11L2.863,9L4.138,9L3.275,11L2,11ZM4.066,11L4.93,9L6.205,9L5.342,11L4.066,11ZM6.133,11L6.996,9L8.271,9L7.407,11L6.133,11ZM8.199,11L9.062,9L10.336,9L9.473,11L8.199,11ZM11.54,11L10.266,11L11.129,9L12.404,9L11.54,11ZM21,11C20.448,11 20,10.552 20,10C20,9.448 20.448,9 21,9C21.553,9 22,9.448 22,10C22,10.552 21.553,11 21,11ZM24,14L0,14L0,18L24,18L24,14ZM2,17L2.863,15L4.138,15L3.275,17L2,17ZM4.066,17L4.929,15L6.204,15L5.341,17L4.066,17ZM6.133,17L6.996,15L8.271,15L7.407,17L6.133,17ZM8.199,17L9.062,15L10.336,15L9.473,17L8.199,17ZM11.54,17L10.266,17L11.129,15L12.404,15L11.54,17ZM21,17C20.448,17 20,16.552 20,16C20,15.448 20.448,15 21,15C21.553,15 22,15.448 22,16C22,16.552 21.553,17 21,17ZM24,20L0,20L0,24L24,24L24,20ZM2,23L2.863,21L4.138,21L3.275,23L2,23ZM4.066,23L4.929,21L6.204,21L5.341,23L4.066,23ZM6.133,23L6.996,21L8.271,21L7.407,23L6.133,23ZM8.199,23L9.062,21L10.336,21L9.473,23L8.199,23ZM11.54,23L10.266,23L11.129,21L12.404,21L11.54,23ZM21,23C20.448,23 20,22.552 20,22C20,21.448 20.448,21 21,21C21.553,21 22,21.448 22,22C22,22.552 21.553,23 21,23ZM22,6L2,6L6,0L18,0L22,6Z" style="fill-rule:nonzero;"/>
    </g>
    <g transform="matrix(5.52429,0,0,4.32668,771.657,443.114)">
        <path d="M24,8L0,8L0,12L24,12L24,8ZM2,11L2.863,9L4.138,9L3.275,11L2,11ZM4.066,11L4.93,9L6.205,9L5.342,11L4.066,11ZM6.133,11L6.996,9L8.271,9L7.407,11L6.133,11ZM8.199,11L9.062,9L10.336,9L9.473,11L8.199,11ZM11.54,11L10.266,11L11.129,9L12.404,9L11.54,11ZM21,11C20.448,11 20,10.552 20,10C20,9.448 20.448,9 21,9C21.553,9 22,9.448 22,10C22,10.552 21.553,11 21,11ZM24,14L0,14L0,18L24,18L24,14ZM2,17L2.863,15L4.138,15L3.275,17L2,17ZM4.066,17L4.929,15L6.204,15L5.341,17L4.066,17ZM6.133,17L6.996,15L8.271,15L7.407,17L6.133,17ZM8.199,17L9.062,15L10.336,15L9.473,17L8.199,17ZM11.54,17L10.266,17L11.129,15L12.404,15L11.54,17ZM21,17C20.448,17 20,16.552 20,16C20,15.448 20.448,15 21,15C21.553,15 22,15.448 22,16C22,16.552 21.553,17 21,17ZM24,20L0,20L0,24L24,24L24,20ZM2,23L2.863,21L4.138,21L3.275,23L2,23ZM4.066,23L4.929,21L6.204,21L5.341,23L4.066,23ZM6.133,23L6.996,21L8.271,21L7.407,23L6.133,23ZM8.199,23L9.062,21L10.336,21L9.473,23L8.199,23ZM11.54,23L10.266,23L11.129,21L12.404,21L11.54,23ZM21,23C20.448,23 20,22.552 20,22C20,21.448 20.448,21 21,21C21.553,21 22,21.448 22,22C22,22.552 21.553,23 21,23ZM22,6L2,6L6,0L18,0L22,6Z" style="fill-rule:nonzero;"/>
    </g>
    <g transform="matrix(5.52429,0,0,4.32668,771.657,647.505)">
        <path d="M24,8L0,8L0,12L24,12L24,8ZM2,11L2.863,9L4.138,9L3.275,11L2,11ZM4.066,11L4.93,9L6.205,9L5.342,11L4.066,11ZM6.133,11L6.996,9L8.271,9L7.407,11L6.133,11ZM8.199,11L9.062,9L10.336,9L9.473,11L8.199,11ZM11.54,11L10.266,11L11.129,9L12.404,9L11.54,11ZM21,11C20.448,11 20,10.552 20,10C20,9.448 20.448,9 21,9C21.553,9 22,9.448 22,10C22,10.552 21.553,11 21,11ZM24,14L0,14L0,18L24,18L24,14ZM2,17L2.863,15L4.138,15L3.275,17L2,17ZM4.066,17L4.929,15L6.204,15L5.341,17L4.066,17ZM6.133,17L6.996,15L8.271,15L7.407,17L6.133,17ZM8.199,17L9.062,15L10.336,15L9.473,17L8.199,17ZM11.54,17L10.266,17L11.129,15L12.404,15L11.54,17ZM21,17C20.448,17 20,16.552 20,16C20,15.448 20.448,15 21,15C21.553,15 22,15.448 22,16C22,16.552 21.553,17 21,17ZM24,20L0,20L0,24L24,24L24,20ZM2,23L2.863,21L4.138,21L3.275,23L2,23ZM4.066,23L4.929,21L6.204,21L5.341,23L4.066,23ZM6.133,23L6.996,21L8.271,21L7.407,23L6.133,23ZM8.199,23L9.062,21L10.336,21L9.473,23L8.199,23ZM11.54,23L10.266,23L11.129,21L12.404,21L11.54,23ZM21,23C20.448,23 20,22.552 20,22C20,21.448 20.448,21 21,21C21.553,21 22,21.448 22,22C22,22.552 21.553,23 21,23ZM22,6L2,6L6,0L18,0L22,6Z" style="fill-rule:nonzero;"/>
    </g>
    <g transform="matrix(1,0,0,1,-1.59678,12.7744)">
        <text x="87.226px" y="463.074px" style="font-family:'Impact', sans-serif;font-stretch:condensed;font-size:36px;">CLIENT</text>
    </g>
    <g transform="matrix(1,0,0,1,342.515,16.7665)">
        <text x="152.372px" y="463.074px" style="font-family:'Impact', sans-serif;font-stretch:condensed;font-size:36px;">DNS</text>
        <text x="87.226px" y="483.074px" style="font-family:'Impact', sans-serif;font-stretch:condensed;font-size:20px;">(DOMAIN NAME SYSTEM)</text>
    </g>
    <g transform="matrix(6.12309,0,0,5.51098,63.0739,300.758)">
        <path d="M22,3.2C22,2.537 21.463,2 20.8,2L3.2,2C2.537,2 2,2.537 2,3.2L2,15L22,15L22,3.2ZM20,13L4,13L4,4L20,4L20,13ZM22,16L2,16C1.803,16.372 0,20.582 0,20.998C0,21.52 0.418,22 1.002,22L22.998,22C23.582,22 24,21.52 24,20.998C24,20.582 22.197,16.372 22,16ZM9.771,21L10.238,20L13.761,20L14.228,21L9.771,21Z" style="fill-rule:nonzero;"/>
    </g>
    <g transform="matrix(1,0,0,1.05714,0,-23.3061)">
        <path d="M226.946,363.772L226.946,353.992L406.188,353.992L406.188,344.91L420.958,358.882L406.188,372.854L406.188,363.772L226.946,363.772Z"/>
    </g>
    <g transform="matrix(1,0,0,1,78.2435,-14.3713)">
        <text x="689.534px" y="190.02px" style="font-family:'Impact', sans-serif;font-stretch:condensed;font-size:30px;">10.197.0.86</text>
    </g>
    <g transform="matrix(1,0,0,1,81.4371,190.02)">
        <text x="689.534px" y="190.02px" style="font-family:'Impact', sans-serif;font-stretch:condensed;font-size:30px;">10.197.0.86</text>
    </g>
    <g transform="matrix(1,0,0,1,79.0419,392.814)">
        <text x="689.534px" y="190.02px" style="font-family:'Impact', sans-serif;font-stretch:condensed;font-size:30px;">10.197.0.86</text>
    </g>
    <g transform="matrix(1,0,0,1,83.8323,593.214)">
        <text x="672.176px" y="190.02px" style="font-family:'Impact', sans-serif;font-stretch:condensed;font-size:30px;">172.217.25.132</text>
    </g>
    <g transform="matrix(1.2383,0,0,1.11823,-58.698,-462.059)">
        <path d="M309.98,546.527C309.98,530.873 298.503,518.164 284.367,518.164L147.968,518.164C133.832,518.164 122.355,530.873 122.355,546.527L122.355,603.253C122.355,618.908 133.832,631.617 147.968,631.617L183.333,631.617L159.88,680.24L211.477,631.617L284.367,631.617C298.503,631.617 309.98,618.908 309.98,603.253L309.98,546.527Z" style="fill:none;stroke:black;stroke-width:4.24px;"/>
    </g>
    <g transform="matrix(0.769142,0,0,0.769142,119.432,57.1895)">
        <text x="4.896px" y="153.856px" style="font-family:'Impact', sans-serif;font-stretch:condensed;font-size:30px;">I would like to go</text>
        <text x="-11.884px" y="183.856px" style="font-family:'Impact', sans-serif;font-stretch:condensed;font-size:30px;">to www.google.com</text>
    </g>
</svg>
