<?xml version="1.0" encoding="UTF-8" standalone="no"?><!DOCTYPE svg PUBLIC "-//W3C//DTD SVG 1.1//EN" "http://www.w3.org/Graphics/SVG/1.1/DTD/svg11.dtd"><svg width="100%" height="100%" viewBox="0 0 1200 300" version="1.1" xmlns="http://www.w3.org/2000/svg" xmlns:xlink="http://www.w3.org/1999/xlink" xml:space="preserve" xmlns:serif="http://www.serif.com/" style="fill-rule:evenodd;clip-rule:evenodd;stroke-linecap:round;stroke-linejoin:round;stroke-miterlimit:1.5;"><g id="FEWD"><ellipse cx="746.741" cy="143.836" rx="81.437" ry="77.445" style="fill:#0c0000;stroke:#f33938;stroke-width:5px;"/><text x="677.28px" y="165.393px" style="font-family:'Impact', sans-serif;font-stretch:condensed;font-size:64px;fill:#fff;">FEWD</text></g><g id="BEWD"><ellipse cx="1045.39" cy="142.697" rx="81.437" ry="77.445" style="fill:#0c0000;stroke:#000;stroke-width:1px;"/><text x="971.134px" y="165.052px" style="font-family:'Impact', sans-serif;font-stretch:condensed;font-size:64px;fill:#fff;">BEWD</text></g><g id="VISD"><ellipse cx="448.096" cy="147.409" rx="81.437" ry="77.445" style="fill:#0c0000;"/><text x="389.812px" y="174.554px" style="font-family:'Impact', sans-serif;font-stretch:condensed;font-size:64px;fill:#fff;">VISD</text></g><g id="UXD"><ellipse cx="149.451" cy="146.715" rx="81.437" ry="77.445" style="fill:#0c0000;"/><text x="98.353px" y="172.264px" style="font-family:'Impact', sans-serif;font-stretch:condensed;font-size:64px;fill:#fff;">UXD</text></g><path d="M248.194,142.375l0,-4.055l95.367,0l0,-3.764l5.792,5.791l-5.792,5.792l0,-3.764l-95.367,0Z" style="fill:#0c0000;stroke:#000;stroke-width:7px;"/><path d="M546.839,144.691l0,-4.054l95.367,0l0,-3.764l5.791,5.791l-5.791,5.792l0,-3.765l-95.367,0Z" style="fill:#0c0000;stroke:#000;stroke-width:7px;"/><path d="M845.484,143.147l0,-4.054l95.367,0l0,-3.765l5.791,5.792l-5.791,5.791l0,-3.764l-95.367,0Z" style="fill:#0c0000;stroke:#000;stroke-width:7px;"/></svg>